<svg xmlns="http://www.w3.org/2000/svg" viewBox="0 0 100 100" width="100" height="100">
  <defs>
    <linearGradient id="primary" x1="0%" y1="0%" x2="100%" y2="100%">
      <stop offset="0%" style="stop-color:#0ea5e9;stop-opacity:1" />
      <stop offset="100%" style="stop-color:#2563eb;stop-opacity:1" />
    </linearGradient>
    <filter id="shadow">
      <feDropShadow dx="0" dy="4" stdDeviation="4" flood-opacity="0.05" />
    </filter>
  </defs>
  <!-- Background: Minimalist white with subtle shadow, matching Notion/Medium style -->
  <rect width="90" height="90" x="5" y="5" rx="20" fill="#ffffff" filter="url(#shadow)" stroke="#e2e8f0" stroke-width="1.5" />
  
  <!-- "R" Shape and Document Line: Primary brand color -->
  <path d="M35 30 H55 C63 30 68 35 68 43 C68 51 63 56 55 56 H47 V70 H35 V30 Z M47 40 V46 H54 C57 46 59 45 59 43 C59 41 57 40 54 40 H47 Z" fill="url(#primary)" />
  
  <!-- Minimalist AI Sparkle -->
  <path d="M72 20 L74 25 L79 27 L74 29 L72 34 L70 29 L65 27 L70 25 Z" fill="#f59e0b" />
</svg>
